<svg width="221" height="39" viewBox="0 0 221 39" fill="none" xmlns="http://www.w3.org/2000/svg">
<path d="M191.217 14.8453C192.331 14.8454 193.116 15.107 193.623 15.5689C194.131 16.0322 194.348 16.6857 194.348 17.44C194.348 18.1884 194.131 18.8407 193.623 19.3053C193.116 19.7688 192.331 20.0337 191.217 20.0338H191.199L194.507 23.6988L194.624 23.8277H192.888L192.864 23.8014L189.534 20.0338H189.338V23.8277H187.954V14.8453H191.217ZM189.338 18.8297H191.276C191.876 18.8296 192.299 18.7032 192.572 18.4791C192.842 18.2573 192.976 17.9298 192.977 17.4996C192.977 17.0756 192.843 16.7475 192.572 16.524C192.299 16.2984 191.875 16.1686 191.276 16.1685H189.338V18.8297Z" fill="white" stroke="white" stroke-width="0.15493"/>
<path d="M178.706 14.6891C181.374 14.6891 183.4 16.7877 183.4 19.3473C183.4 21.9562 181.312 23.982 178.706 23.982C176.112 23.9819 174.024 21.9559 174.024 19.3473C174.024 16.7881 176.038 14.6892 178.706 14.6891ZM178.706 15.9654C176.809 15.9656 175.408 17.5368 175.408 19.359C175.408 21.191 176.842 22.7055 178.706 22.7057C180.57 22.7057 182.017 21.1907 182.017 19.359C182.017 17.5371 180.604 15.9654 178.706 15.9654Z" fill="white" stroke="white" stroke-width="0.15493"/>
<path d="M170.889 14.8453V16.1685H168.002V23.8277H166.618V16.1685H163.72V14.8453H170.889Z" fill="white" stroke="white" stroke-width="0.15493"/>
<path d="M160.132 16.7408H160.004L159.982 16.7232C159.309 16.1891 158.385 15.9654 157.441 15.9654C156.37 15.9655 155.532 16.3597 154.962 16.9752C154.391 17.5916 154.084 18.4344 154.084 19.3355C154.084 20.2427 154.39 21.0851 154.969 21.6998C155.546 22.3136 156.399 22.7055 157.501 22.7057C158.469 22.7057 159.38 22.481 160.054 21.9469L160.075 21.9303H160.203V23.2906L160.168 23.3131C159.459 23.7652 158.44 23.982 157.43 23.982C154.558 23.9819 152.7 21.8937 152.7 19.3355C152.7 16.79 154.557 14.6891 157.37 14.6891C158.405 14.6891 159.412 14.9169 160.097 15.357L160.132 15.3805V16.7408Z" fill="white" stroke="white" stroke-width="0.15493"/>
<path d="M144.015 14.6891C146.682 14.6891 148.709 16.7877 148.709 19.3473C148.709 21.9562 146.621 23.982 144.015 23.982C141.42 23.9819 139.333 21.9559 139.333 19.3473C139.333 16.7881 141.347 14.6892 144.015 14.6891ZM144.015 15.9654C142.117 15.9656 140.717 17.5368 140.717 19.359C140.717 21.191 142.151 22.7055 144.015 22.7057C145.879 22.7057 147.325 21.1907 147.325 19.359C147.325 17.5371 145.913 15.9654 144.015 15.9654Z" fill="white" stroke="white" stroke-width="0.15493"/>
<path d="M130.521 14.8453C131.925 14.8454 133.129 15.2643 133.982 16.0387C134.837 16.8139 135.334 17.9393 135.334 19.3365C135.334 20.7337 134.837 21.8591 133.982 22.6344C133.129 23.4087 131.925 23.8277 130.521 23.8277H127.974V14.8453H130.521ZM129.357 22.5035H130.496C131.462 22.5035 132.329 22.2559 132.952 21.7398C133.573 21.2256 133.962 20.4378 133.962 19.3365C133.962 18.2351 133.573 17.4465 132.952 16.9322C132.329 16.4162 131.462 16.1685 130.496 16.1685H129.357V22.5035Z" fill="white" stroke="white" stroke-width="0.15493"/>
<path d="M117.484 14.8453V16.1685H113.357V18.484H116.721V19.8072H113.357V22.5035H117.484V23.8277H111.974V14.8453H117.484Z" fill="white" stroke="white" stroke-width="0.15493"/>
<path d="M99.1387 14.6422L99.1611 14.6646L105.471 21.0318V14.8443H106.843V24.0299H106.697L106.674 24.0074L100.365 17.6392V23.8277H98.9814V14.6422H99.1387Z" fill="white" stroke="white" stroke-width="0.15493"/>
<path d="M93.8652 14.8453V23.8277H92.4814V14.8453H93.8652Z" fill="white" stroke="white" stroke-width="0.15493"/>
<path d="M84.0332 14.8453V22.5035H88.3037V23.8277H82.6494V14.8453H84.0332Z" fill="white" stroke="white" stroke-width="0.15493"/>
<path d="M69.8145 14.6422L69.8369 14.6646L76.1465 21.0318V14.8443H77.5186V24.0299H77.373L77.3496 24.0074L71.041 17.6392V23.8277H69.6572V14.6422H69.8145Z" fill="white" stroke="white" stroke-width="0.15493"/>
<path d="M60.417 14.6891C63.0847 14.6891 65.1113 16.7877 65.1113 19.3473C65.1113 21.9562 63.0233 23.982 60.417 23.982C57.8227 23.9819 55.7354 21.9559 55.7354 19.3473C55.7354 16.7881 57.7492 14.6892 60.417 14.6891ZM60.417 15.9654C58.5195 15.9656 57.1192 17.5368 57.1191 19.359C57.1191 21.191 58.5531 22.7055 60.417 22.7057C62.2814 22.7057 63.7275 21.1907 63.7275 19.359C63.7275 17.5371 62.315 15.9654 60.417 15.9654Z" fill="white" stroke="white" stroke-width="0.15493"/>
<path d="M30.0977 6.8169V0.619718H220.041V38.3451H30.0977V32.5352" stroke="white" stroke-width="1.23944"/>
<mask id="path-14-inside-1_0_5" fill="white">
<path d="M43.7455 18.2637C43.7181 17.1217 43.1506 16.0309 42.1761 15.5183C42.552 14.9436 42.9188 14.3617 43.2765 13.7761C43.6433 14.5186 44.1871 15.3194 44.1871 16.3738C44.1871 17.0433 44.0302 17.7018 43.7455 18.2619M42.8057 19.402C42.3933 19.703 41.9042 19.8781 41.3567 19.8781C40.6249 19.8781 40.0008 19.5771 39.6139 19.0591C40.3493 18.1652 41.0757 17.1619 41.7618 16.1458C42.5611 16.5945 42.886 17.6325 42.886 18.5702C42.886 18.8602 42.8604 19.1393 42.8057 19.402ZM39.2544 18.2746C39.2142 18.0977 39.1942 17.9098 39.1942 17.7128C39.1942 16.7168 39.9022 15.9159 40.8384 15.9159C40.9005 15.9159 40.9625 15.9178 41.0191 15.9232C40.4223 16.7678 39.8274 17.5687 39.2544 18.2728M28.3377 22.775C28.0165 22.775 27.8705 22.5141 27.8705 22.038C27.8705 20.4965 29.2411 17.2659 31.4401 15.3668C31.6828 15.7682 31.7923 16.2808 31.7959 16.8134C31.8051 19.3601 29.4728 22.775 28.3377 22.775ZM19.6164 24.6649C19.3062 24.6649 19.1493 24.3967 19.1493 23.9407C19.1493 21.9504 22.5308 15.4398 24.2317 15.4398C24.5528 15.4398 24.6988 15.708 24.6988 16.175C24.6988 18.1853 21.3373 24.6649 19.6164 24.6649ZM14.6855 17.866C14.2712 17.4173 13.8187 17.0524 13.3515 16.7697C14.5085 14.3927 15.7914 12.1453 17.3992 10.4342C17.9448 10.9979 18.2404 11.7677 18.2404 12.6871C18.2404 14.9746 16.7312 16.9831 14.6855 17.866ZM8.28551 28.9189C7.8384 28.9189 7.43144 28.8587 7.06646 28.7529C9.07022 26.5 10.563 22.8917 12.1927 19.2688C12.877 19.2907 13.5358 19.2068 14.1198 19.1028C14.4446 19.7906 14.6454 20.6315 14.6454 21.6312C14.6454 24.9038 12.2365 28.9189 8.28551 28.9189ZM5.61747 27.9466C4.9751 27.3428 4.65757 26.5639 4.66487 25.9163C4.67034 25.5934 4.75611 25.296 4.89481 25.037C5.10102 25.4894 5.60287 25.8305 6.21057 25.8305C6.43869 25.8305 6.66498 25.7849 6.87667 25.6974C6.46424 26.5383 6.04998 27.299 5.61747 27.9448M9.93341 17.1856C9.93341 16.746 10.4645 16.6693 11.0302 16.7368C10.8258 17.1163 10.6287 17.4975 10.4371 17.8824C10.1159 17.6836 9.93341 17.4373 9.93341 17.1856ZM12.9609 17.5924C13.1854 17.7803 13.3916 17.9882 13.5741 18.2181C13.2584 18.2856 12.9372 18.3257 12.616 18.3367C12.731 18.0886 12.8442 17.8387 12.9609 17.5924ZM43.6798 13.1796C44.0631 12.7418 44.3003 12.1964 44.3003 11.795C44.3003 11.5214 44.1415 11.3481 43.886 11.3481C43.4608 11.3481 42.9499 11.8717 42.9499 12.6615C42.9499 12.7728 42.9644 12.8823 42.9845 12.9917C42.4973 13.7542 41.9918 14.5259 41.4771 15.2702C41.2947 15.2337 41.1085 15.2154 40.9242 15.2154C39.6905 15.2154 38.4186 16.1403 38.4186 17.8131C38.4186 18.2673 38.4989 18.6668 38.6339 19.0116C37.5773 20.2156 36.6484 20.9945 36.0188 20.9945C35.7706 20.9945 35.621 20.8614 35.621 20.5804C35.621 20.2795 35.767 19.8033 36.059 19.1411L39.6869 11.1073L43.605 10.6458L44.0503 9.71725L40.2599 9.8413L40.9169 8.3874L39.4478 8.57165L38.7799 9.88873L33.4767 10.0602L32.5223 11.9519L38.0682 11.2988L36.9532 13.5098C36.382 13.2544 35.6921 13.1085 34.8874 13.1085C33.6738 13.1085 32.546 13.4095 31.5313 13.9184C31.0715 13.694 30.5532 13.5864 30.0239 13.5864C28.7429 13.5864 27.2939 14.2012 26.1131 15.2811C25.8741 14.5459 25.3759 14.1045 24.635 14.1045C23.7736 14.1045 22.8575 14.5569 21.9815 15.2884C21.4578 14.8597 20.6986 14.7357 19.9011 15.0385C20.33 14.2358 20.5672 13.3839 20.5672 12.5338C20.5672 11.0526 19.8719 9.96352 18.6036 9.30498C19.0379 8.95291 19.4942 8.63732 19.9796 8.36733C19.8007 8.22687 19.6894 8.13931 19.5398 8.05722C18.9193 8.30896 18.3207 8.60996 17.7495 8.95838C16.9502 8.70299 15.9976 8.57347 14.9063 8.57347C9.84399 8.57347 5.0554 11.494 5.0554 15.1023C5.0554 16.6949 5.95691 17.264 6.84747 17.264C7.67963 17.264 8.49355 16.797 8.75269 16.2315C8.02819 16.0819 7.59751 15.4544 7.59751 14.6591C7.59751 11.8498 11.0046 9.39072 14.4994 9.39072C15.2822 9.39072 15.9593 9.53666 16.5159 9.80482C14.3935 11.4375 12.7639 13.6612 11.4189 16.0382C11.2309 16.009 11.043 15.9944 10.8532 15.9944C9.84764 15.9944 9.12314 16.4267 9.12314 17.2604C9.12314 17.8259 9.4936 18.313 10.0557 18.665C9.22716 20.3944 8.4972 22.1274 7.79825 23.7035C7.55554 23.2256 7.00441 22.9118 6.36387 22.9118C4.82363 22.9118 3.66846 24.2672 3.66846 25.9418C3.66846 27.0363 4.11192 28.0816 4.87656 28.9171C4.15389 29.7234 3.36552 30.2032 2.44029 30.2251C2.141 30.2342 1.84354 30.1594 1.5844 30.0098C2.30707 29.9314 2.90017 29.3951 2.88192 28.6982C2.86367 28.0014 2.28335 27.507 1.48586 27.5234C0.51135 27.5417 -0.0160519 28.3589 0.00037236 29.074C0.0295711 30.4002 1.15555 31.0934 2.62278 31.0606C3.8911 31.0314 4.98058 30.579 5.95143 29.8164C6.87302 30.4075 8.02454 30.7669 9.31294 30.7669C13.2055 30.7669 16.5104 27.4504 16.5104 23.0012C16.5104 21.2317 16.0542 19.8325 15.3735 18.7599C16.6382 18.3148 17.7477 17.6052 18.6109 16.7496C19.8226 15.5493 20.7242 15.6605 21.2351 15.9853C19.2259 18.0703 17.5962 21.4324 17.5962 23.6944C17.5962 25.0936 18.1547 26.0057 19.2314 26.0057C22.4633 26.0057 26.3212 19.776 26.2756 16.3537C27.3139 15.2045 28.7009 14.5186 29.8287 14.5186C30.0422 14.5186 30.2356 14.5441 30.4127 14.5916C27.887 16.3756 26.3139 19.4275 26.3139 21.7753C26.3139 23.0212 26.9252 23.9644 28.1169 23.9644C30.3415 23.9644 33.2395 20.502 33.2395 17.0469C33.2395 15.9871 32.9383 15.1881 32.4602 14.628C33.2376 14.1665 34.0917 13.8856 35.0078 13.8856C35.5389 13.8856 36.0955 14.0096 36.5937 14.2285L34.3673 18.6431C33.849 19.7194 33.6464 20.5184 33.6464 21.0967C33.6464 21.9906 34.1683 22.4466 34.9987 22.4466C36.2049 22.4466 37.6302 21.3247 39.05 19.7212C39.6632 20.4801 40.6194 20.8212 41.4114 20.8212C41.6615 20.8212 41.9206 20.7957 42.1816 20.7501C41.583 21.5053 40.5884 22.0727 39.1285 22.4375L19.7953 27.2698C16.859 28.0014 15.0633 29.4516 15.9301 32.2262C16.5998 31.6753 17.8079 31.1372 20.9249 30.1868L38.4752 24.8382C41.0428 24.0538 42.6706 22.2149 43.3659 20.3579C44.5631 19.7796 45.6252 18.6705 45.6252 17.129C45.6252 15.4289 44.1999 14.4146 43.6816 13.1796"/>
</mask>
<path d="M43.7455 18.2637C43.7181 17.1217 43.1506 16.0309 42.1761 15.5183C42.552 14.9436 42.9188 14.3617 43.2765 13.7761C43.6433 14.5186 44.1871 15.3194 44.1871 16.3738C44.1871 17.0433 44.0302 17.7018 43.7455 18.2619M42.8057 19.402C42.3933 19.703 41.9042 19.8781 41.3567 19.8781C40.6249 19.8781 40.0008 19.5771 39.6139 19.0591C40.3493 18.1652 41.0757 17.1619 41.7618 16.1458C42.5611 16.5945 42.886 17.6325 42.886 18.5702C42.886 18.8602 42.8604 19.1393 42.8057 19.402ZM39.2544 18.2746C39.2142 18.0977 39.1942 17.9098 39.1942 17.7128C39.1942 16.7168 39.9022 15.9159 40.8384 15.9159C40.9005 15.9159 40.9625 15.9178 41.0191 15.9232C40.4223 16.7678 39.8274 17.5687 39.2544 18.2728M28.3377 22.775C28.0165 22.775 27.8705 22.5141 27.8705 22.038C27.8705 20.4965 29.2411 17.2659 31.4401 15.3668C31.6828 15.7682 31.7923 16.2808 31.7959 16.8134C31.8051 19.3601 29.4728 22.775 28.3377 22.775ZM19.6164 24.6649C19.3062 24.6649 19.1493 24.3967 19.1493 23.9407C19.1493 21.9504 22.5308 15.4398 24.2317 15.4398C24.5528 15.4398 24.6988 15.708 24.6988 16.175C24.6988 18.1853 21.3373 24.6649 19.6164 24.6649ZM14.6855 17.866C14.2712 17.4173 13.8187 17.0524 13.3515 16.7697C14.5085 14.3927 15.7914 12.1453 17.3992 10.4342C17.9448 10.9979 18.2404 11.7677 18.2404 12.6871C18.2404 14.9746 16.7312 16.9831 14.6855 17.866ZM8.28551 28.9189C7.8384 28.9189 7.43144 28.8587 7.06646 28.7529C9.07022 26.5 10.563 22.8917 12.1927 19.2688C12.877 19.2907 13.5358 19.2068 14.1198 19.1028C14.4446 19.7906 14.6454 20.6315 14.6454 21.6312C14.6454 24.9038 12.2365 28.9189 8.28551 28.9189ZM5.61747 27.9466C4.9751 27.3428 4.65757 26.5639 4.66487 25.9163C4.67034 25.5934 4.75611 25.296 4.89481 25.037C5.10102 25.4894 5.60287 25.8305 6.21057 25.8305C6.43869 25.8305 6.66498 25.7849 6.87667 25.6974C6.46424 26.5383 6.04998 27.299 5.61747 27.9448M9.93341 17.1856C9.93341 16.746 10.4645 16.6693 11.0302 16.7368C10.8258 17.1163 10.6287 17.4975 10.4371 17.8824C10.1159 17.6836 9.93341 17.4373 9.93341 17.1856ZM12.9609 17.5924C13.1854 17.7803 13.3916 17.9882 13.5741 18.2181C13.2584 18.2856 12.9372 18.3257 12.616 18.3367C12.731 18.0886 12.8442 17.8387 12.9609 17.5924ZM43.6798 13.1796C44.0631 12.7418 44.3003 12.1964 44.3003 11.795C44.3003 11.5214 44.1415 11.3481 43.886 11.3481C43.4608 11.3481 42.9499 11.8717 42.9499 12.6615C42.9499 12.7728 42.9644 12.8823 42.9845 12.9917C42.4973 13.7542 41.9918 14.5259 41.4771 15.2702C41.2947 15.2337 41.1085 15.2154 40.9242 15.2154C39.6905 15.2154 38.4186 16.1403 38.4186 17.8131C38.4186 18.2673 38.4989 18.6668 38.6339 19.0116C37.5773 20.2156 36.6484 20.9945 36.0188 20.9945C35.7706 20.9945 35.621 20.8614 35.621 20.5804C35.621 20.2795 35.767 19.8033 36.059 19.1411L39.6869 11.1073L43.605 10.6458L44.0503 9.71725L40.2599 9.8413L40.9169 8.3874L39.4478 8.57165L38.7799 9.88873L33.4767 10.0602L32.5223 11.9519L38.0682 11.2988L36.9532 13.5098C36.382 13.2544 35.6921 13.1085 34.8874 13.1085C33.6738 13.1085 32.546 13.4095 31.5313 13.9184C31.0715 13.694 30.5532 13.5864 30.0239 13.5864C28.7429 13.5864 27.2939 14.2012 26.1131 15.2811C25.8741 14.5459 25.3759 14.1045 24.635 14.1045C23.7736 14.1045 22.8575 14.5569 21.9815 15.2884C21.4578 14.8597 20.6986 14.7357 19.9011 15.0385C20.33 14.2358 20.5672 13.3839 20.5672 12.5338C20.5672 11.0526 19.8719 9.96352 18.6036 9.30498C19.0379 8.95291 19.4942 8.63732 19.9796 8.36733C19.8007 8.22687 19.6894 8.13931 19.5398 8.05722C18.9193 8.30896 18.3207 8.60996 17.7495 8.95838C16.9502 8.70299 15.9976 8.57347 14.9063 8.57347C9.84399 8.57347 5.0554 11.494 5.0554 15.1023C5.0554 16.6949 5.95691 17.264 6.84747 17.264C7.67963 17.264 8.49355 16.797 8.75269 16.2315C8.02819 16.0819 7.59751 15.4544 7.59751 14.6591C7.59751 11.8498 11.0046 9.39072 14.4994 9.39072C15.2822 9.39072 15.9593 9.53666 16.5159 9.80482C14.3935 11.4375 12.7639 13.6612 11.4189 16.0382C11.2309 16.009 11.043 15.9944 10.8532 15.9944C9.84764 15.9944 9.12314 16.4267 9.12314 17.2604C9.12314 17.8259 9.4936 18.313 10.0557 18.665C9.22716 20.3944 8.4972 22.1274 7.79825 23.7035C7.55554 23.2256 7.00441 22.9118 6.36387 22.9118C4.82363 22.9118 3.66846 24.2672 3.66846 25.9418C3.66846 27.0363 4.11192 28.0816 4.87656 28.9171C4.15389 29.7234 3.36552 30.2032 2.44029 30.2251C2.141 30.2342 1.84354 30.1594 1.5844 30.0098C2.30707 29.9314 2.90017 29.3951 2.88192 28.6982C2.86367 28.0014 2.28335 27.507 1.48586 27.5234C0.51135 27.5417 -0.0160519 28.3589 0.00037236 29.074C0.0295711 30.4002 1.15555 31.0934 2.62278 31.0606C3.8911 31.0314 4.98058 30.579 5.95143 29.8164C6.87302 30.4075 8.02454 30.7669 9.31294 30.7669C13.2055 30.7669 16.5104 27.4504 16.5104 23.0012C16.5104 21.2317 16.0542 19.8325 15.3735 18.7599C16.6382 18.3148 17.7477 17.6052 18.6109 16.7496C19.8226 15.5493 20.7242 15.6605 21.2351 15.9853C19.2259 18.0703 17.5962 21.4324 17.5962 23.6944C17.5962 25.0936 18.1547 26.0057 19.2314 26.0057C22.4633 26.0057 26.3212 19.776 26.2756 16.3537C27.3139 15.2045 28.7009 14.5186 29.8287 14.5186C30.0422 14.5186 30.2356 14.5441 30.4127 14.5916C27.887 16.3756 26.3139 19.4275 26.3139 21.7753C26.3139 23.0212 26.9252 23.9644 28.1169 23.9644C30.3415 23.9644 33.2395 20.502 33.2395 17.0469C33.2395 15.9871 32.9383 15.1881 32.4602 14.628C33.2376 14.1665 34.0917 13.8856 35.0078 13.8856C35.5389 13.8856 36.0955 14.0096 36.5937 14.2285L34.3673 18.6431C33.849 19.7194 33.6464 20.5184 33.6464 21.0967C33.6464 21.9906 34.1683 22.4466 34.9987 22.4466C36.2049 22.4466 37.6302 21.3247 39.05 19.7212C39.6632 20.4801 40.6194 20.8212 41.4114 20.8212C41.6615 20.8212 41.9206 20.7957 42.1816 20.7501C41.583 21.5053 40.5884 22.0727 39.1285 22.4375L19.7953 27.2698C16.859 28.0014 15.0633 29.4516 15.9301 32.2262C16.5998 31.6753 17.8079 31.1372 20.9249 30.1868L38.4752 24.8382C41.0428 24.0538 42.6706 22.2149 43.3659 20.3579C44.5631 19.7796 45.6252 18.6705 45.6252 17.129C45.6252 15.4289 44.1999 14.4146 43.6816 13.1796" fill="white"/>
<path d="M42.1761 15.5183L42.0745 15.4518L42.0013 15.5635L42.1196 15.6257L42.1761 15.5183ZM43.2765 13.7761L43.3854 13.7223L43.2878 13.5248L43.1729 13.7128L43.2765 13.7761ZM42.8057 19.402L42.8773 19.5001L42.915 19.4725L42.9246 19.4268L42.8057 19.402ZM39.6139 19.0591L39.5201 18.9819L39.4596 19.0554L39.5166 19.1317L39.6139 19.0591ZM41.7618 16.1458L41.8213 16.0399L41.7238 15.9852L41.6612 16.0778L41.7618 16.1458ZM41.0191 15.9232L41.1183 15.9933L41.2389 15.8225L41.0308 15.8024L41.0191 15.9232ZM31.4401 15.3668L31.544 15.304L31.4696 15.1809L31.3607 15.2749L31.4401 15.3668ZM31.7959 16.8134L31.9174 16.813L31.9174 16.8126L31.7959 16.8134ZM14.6855 17.866L14.5963 17.9484L14.6546 18.0116L14.7336 17.9775L14.6855 17.866ZM13.3515 16.7697L13.2423 16.7165L13.1938 16.8162L13.2886 16.8736L13.3515 16.7697ZM17.3992 10.4342L17.4864 10.3497L17.3978 10.2582L17.3107 10.351L17.3992 10.4342ZM7.06646 28.7529L6.97573 28.6722L6.84786 28.816L7.03265 28.8696L7.06646 28.7529ZM12.1927 19.2688L12.1965 19.1475L12.1153 19.1449L12.0819 19.219L12.1927 19.2688ZM14.1198 19.1028L14.2296 19.051L14.1899 18.967L14.0985 18.9833L14.1198 19.1028ZM4.66487 25.9163L4.54345 25.9142L4.54344 25.9149L4.66487 25.9163ZM4.89481 25.037L5.0053 24.9866L4.90355 24.7634L4.78775 24.9797L4.89481 25.037ZM6.87667 25.6974L6.98569 25.7508L7.12718 25.4623L6.83025 25.5852L6.87667 25.6974ZM11.0302 16.7368L11.1371 16.7944L11.2217 16.6374L11.0446 16.6163L11.0302 16.7368ZM10.4371 17.8824L10.3732 17.9857L10.4864 18.0558L10.5458 17.9366L10.4371 17.8824ZM12.9609 17.5924L13.0389 17.4993L12.9185 17.3985L12.8512 17.5404L12.9609 17.5924ZM13.5741 18.2181L13.5995 18.3368L13.791 18.2959L13.6692 18.1426L13.5741 18.2181ZM12.616 18.3367L12.5059 18.2856L12.4228 18.4648L12.6202 18.458L12.616 18.3367ZM42.9845 12.9917L43.0868 13.0571L43.1126 13.0168L43.104 12.9698L42.9845 12.9917ZM41.4771 15.2702L41.4533 15.3892L41.5316 15.4049L41.577 15.3392L41.4771 15.2702ZM38.6339 19.0116L38.7252 19.0917L38.7739 19.0362L38.747 18.9673L38.6339 19.0116ZM36.059 19.1411L35.9483 19.0912L35.9478 19.0922L36.059 19.1411ZM39.6869 11.1073L39.6727 10.9867L39.6045 10.9947L39.5762 11.0573L39.6869 11.1073ZM43.605 10.6458L43.6192 10.7664L43.6856 10.7586L43.7145 10.6983L43.605 10.6458ZM44.0503 9.71725L44.1598 9.76976L44.2463 9.58934L44.0463 9.59589L44.0503 9.71725ZM40.2599 9.8413L40.1493 9.7913L40.0689 9.96905L40.2639 9.96267L40.2599 9.8413ZM40.9169 8.3874L41.0276 8.4374L41.1168 8.23995L40.9018 8.26691L40.9169 8.3874ZM39.4478 8.57165L39.4327 8.45116L39.3687 8.45919L39.3395 8.51672L39.4478 8.57165ZM38.7799 9.88873L38.7838 10.0101L38.8557 10.0078L38.8882 9.94365L38.7799 9.88873ZM33.4767 10.0602L33.4728 9.93884L33.4007 9.94117L33.3683 10.0055L33.4767 10.0602ZM32.5223 11.9519L32.4139 11.8972L32.3121 12.0989L32.5365 12.0725L32.5223 11.9519ZM38.0682 11.2988L38.1766 11.3535L38.2783 11.1518L38.054 11.1782L38.0682 11.2988ZM36.9532 13.5098L36.9036 13.6207L37.0094 13.668L37.0616 13.5645L36.9532 13.5098ZM31.5313 13.9184L31.4781 14.0276L31.5321 14.0539L31.5858 14.027L31.5313 13.9184ZM26.1131 15.2811L25.9977 15.3187L26.056 15.498L26.1951 15.3707L26.1131 15.2811ZM21.9815 15.2884L21.9046 15.3824L21.9823 15.446L22.0594 15.3816L21.9815 15.2884ZM19.9011 15.0385L19.794 14.9813L19.6413 15.267L19.9442 15.152L19.9011 15.0385ZM18.6036 9.30498L18.5271 9.21065L18.3832 9.32735L18.5476 9.41275L18.6036 9.30498ZM19.9796 8.36733L20.0386 8.47346L20.1983 8.38467L20.0546 8.27184L19.9796 8.36733ZM19.5398 8.05722L19.5982 7.95075L19.5476 7.923L19.4941 7.9447L19.5398 8.05722ZM17.7495 8.95838L17.7126 9.07405L17.7654 9.09093L17.8128 9.06205L17.7495 8.95838ZM8.75269 16.2315L8.86308 16.2821L8.92662 16.1434L8.77724 16.1126L8.75269 16.2315ZM16.5159 9.80482L16.5899 9.90106L16.7461 9.78093L16.5686 9.69542L16.5159 9.80482ZM11.4189 16.0382L11.4003 16.1581L11.4832 16.171L11.5246 16.098L11.4189 16.0382ZM10.0557 18.665L10.1652 18.7175L10.212 18.6197L10.1201 18.5621L10.0557 18.665ZM7.79825 23.7035L7.68998 23.7585L7.80568 23.9863L7.90926 23.7527L7.79825 23.7035ZM4.87656 28.9171L4.96698 28.9982L5.04039 28.9163L4.96614 28.8351L4.87656 28.9171ZM2.44029 30.2251L2.43742 30.1037L2.43659 30.1037L2.44029 30.2251ZM1.5844 30.0098L1.5713 29.8891L1.20184 29.9292L1.5237 30.115L1.5844 30.0098ZM1.48586 27.5234L1.48813 27.6448L1.48836 27.6448L1.48586 27.5234ZM0.00037236 29.074L0.121774 29.0713L0.121772 29.0712L0.00037236 29.074ZM2.62278 31.0606L2.6255 31.182L2.62558 31.182L2.62278 31.0606ZM5.95143 29.8164L6.01699 29.7142L5.94432 29.6676L5.87643 29.7209L5.95143 29.8164ZM15.3735 18.7599L15.3332 18.6453L15.1892 18.696L15.271 18.8249L15.3735 18.7599ZM18.6109 16.7496L18.5254 16.6633L18.5254 16.6634L18.6109 16.7496ZM21.2351 15.9853L21.3226 16.0695L21.4257 15.9625L21.3003 15.8828L21.2351 15.9853ZM26.2756 16.3537L26.1855 16.2723L26.1535 16.3077L26.1541 16.3554L26.2756 16.3537ZM30.4127 14.5916L30.4827 14.6907L30.6943 14.5413L30.4441 14.4743L30.4127 14.5916ZM32.4602 14.628L32.3982 14.5236L32.2742 14.5972L32.3679 14.7069L32.4602 14.628ZM36.5937 14.2285L36.7021 14.2832L36.7597 14.1689L36.6425 14.1174L36.5937 14.2285ZM34.3673 18.6431L34.2588 18.5884L34.2579 18.5905L34.3673 18.6431ZM39.05 19.7212L39.1444 19.6449L39.0542 19.5333L38.9591 19.6407L39.05 19.7212ZM42.1816 20.7501L42.2767 20.8255L42.4748 20.5756L42.1607 20.6305L42.1816 20.7501ZM39.1285 22.4375L39.099 22.3197L39.099 22.3197L39.1285 22.4375ZM19.7953 27.2698L19.8246 27.3877L19.8247 27.3876L19.7953 27.2698ZM15.9301 32.2262L15.8142 32.2624L15.868 32.4346L16.0072 32.32L15.9301 32.2262ZM20.9249 30.1868L20.8895 30.0706L20.8895 30.0706L20.9249 30.1868ZM38.4752 24.8382L38.5106 24.9543L38.5106 24.9543L38.4752 24.8382ZM43.3659 20.3579L43.3131 20.2486L43.2693 20.2697L43.2522 20.3153L43.3659 20.3579ZM43.7455 18.2637L43.8669 18.2608C43.8387 17.084 43.2536 15.9478 42.2326 15.4108L42.1761 15.5183L42.1196 15.6257C43.0476 16.1139 43.5976 17.1595 43.6241 18.2666L43.7455 18.2637ZM42.1761 15.5183L42.2777 15.5847C42.6544 15.009 43.0219 14.426 43.3801 13.8394L43.2765 13.7761L43.1729 13.7128C42.8158 14.2974 42.4497 14.8783 42.0745 15.4518L42.1761 15.5183ZM43.2765 13.7761L43.1676 13.8299C43.5438 14.5913 44.0657 15.3561 44.0657 16.3738H44.1871H44.3086C44.3086 15.2827 43.7428 14.4458 43.3854 13.7223L43.2765 13.7761ZM44.1871 16.3738H44.0657C44.0657 17.0249 43.913 17.6645 43.6373 18.2068L43.7455 18.2619L43.8538 18.3169C44.1474 17.7392 44.3086 17.0617 44.3086 16.3738H44.1871ZM42.8057 19.402L42.7341 19.3039C42.3412 19.5907 41.8769 19.7567 41.3567 19.7567V19.8781V19.9996C41.9314 19.9996 42.4453 19.8153 42.8773 19.5001L42.8057 19.402ZM41.3567 19.8781V19.7567C40.659 19.7567 40.0728 19.4706 39.7112 18.9864L39.6139 19.0591L39.5166 19.1317C39.9288 19.6837 40.5908 19.9996 41.3567 19.9996V19.8781ZM39.6139 19.0591L39.7077 19.1362C40.4463 18.2385 41.175 17.2318 41.8625 16.2137L41.7618 16.1458L41.6612 16.0778C40.9764 17.0919 40.2524 18.0919 39.5201 18.9819L39.6139 19.0591ZM41.7618 16.1458L41.7024 16.2517C42.4442 16.6681 42.7645 17.6487 42.7645 18.5702H42.886H43.0074C43.0074 17.6164 42.6781 16.521 41.8213 16.0399L41.7618 16.1458ZM42.886 18.5702H42.7645C42.7645 18.8532 42.7396 19.1239 42.6868 19.3772L42.8057 19.402L42.9246 19.4268C42.9813 19.1548 43.0074 18.8672 43.0074 18.5702H42.886ZM39.2544 18.2746L39.3728 18.2478C39.3348 18.0804 39.3156 17.9016 39.3156 17.7128H39.1942H39.0727C39.0727 17.918 39.0936 18.115 39.136 18.3015L39.2544 18.2746ZM39.1942 17.7128H39.3156C39.3156 16.7722 39.9804 16.0374 40.8384 16.0374V15.9159V15.7945C39.8241 15.7945 39.0727 16.6613 39.0727 17.7128H39.1942ZM40.8384 15.9159V16.0374C40.8985 16.0374 40.9562 16.0391 41.0074 16.0441L41.0191 15.9232L41.0308 15.8024C40.9688 15.7964 40.9025 15.7945 40.8384 15.7945V15.9159ZM41.0191 15.9232L40.9199 15.8532C40.3241 16.6964 39.7309 17.4949 39.1602 18.1962L39.2544 18.2728L39.3486 18.3495C39.9239 17.6425 40.5206 16.8393 41.1183 15.9933L41.0191 15.9232ZM28.3377 22.775V22.6535C28.2168 22.6535 28.1404 22.6082 28.0871 22.5215C28.0279 22.425 27.992 22.2676 27.992 22.038H27.8705H27.7491C27.7491 22.2845 27.7862 22.4956 27.8802 22.6486C27.9802 22.8114 28.1374 22.8964 28.3377 22.8964V22.775ZM27.8705 22.038H27.992C27.992 21.2944 28.3255 20.1211 28.9393 18.8907C29.5517 17.6633 30.4351 16.3952 31.5195 15.4588L31.4401 15.3668L31.3607 15.2749C30.2461 16.2375 29.3447 17.5342 28.722 18.7823C28.1008 20.0274 27.7491 21.2401 27.7491 22.038H27.8705ZM31.4401 15.3668L31.3362 15.4297C31.5642 15.8067 31.671 16.2959 31.6745 16.8143L31.7959 16.8134L31.9174 16.8126C31.9136 16.2657 31.8014 15.7296 31.544 15.304L31.4401 15.3668ZM31.7959 16.8134L31.6745 16.8139C31.679 18.0556 31.1102 19.5233 30.3926 20.6854C30.0346 21.265 29.6432 21.7627 29.2745 22.1137C29.0901 22.2892 28.9138 22.4257 28.7524 22.5178C28.5899 22.6105 28.4505 22.6535 28.3377 22.6535V22.775V22.8964C28.5087 22.8964 28.6905 22.8327 28.8728 22.7287C29.0562 22.6241 29.2482 22.474 29.4419 22.2896C29.8295 21.9207 30.2334 21.4054 30.5992 20.813C31.3292 19.6309 31.9221 18.1179 31.9174 16.813L31.7959 16.8134ZM19.6164 24.6649V24.5434C19.5032 24.5434 19.4251 24.4979 19.3693 24.4091C19.3086 24.3127 19.2707 24.158 19.2707 23.9407H19.1493H19.0278C19.0278 24.1794 19.0683 24.3868 19.1637 24.5384C19.2639 24.6977 19.4195 24.7863 19.6164 24.7863V24.6649ZM19.1493 23.9407H19.2707C19.2707 23.4674 19.4743 22.7056 19.8175 21.8165C20.1588 20.9323 20.632 19.9372 21.1584 19.0035C21.6852 18.0693 22.2628 17.2008 22.8117 16.5677C23.0864 16.251 23.3509 15.9966 23.5954 15.8223C23.8421 15.6465 24.0559 15.5612 24.2317 15.5612V15.4398V15.3184C23.9822 15.3184 23.7183 15.4365 23.4545 15.6246C23.1885 15.8141 22.9098 16.0839 22.6282 16.4086C22.0648 17.0585 21.4781 17.9421 20.9469 18.8843C20.4153 19.8271 19.9368 20.8328 19.5909 21.729C19.2469 22.6204 19.0278 23.4188 19.0278 23.9407H19.1493ZM24.2317 15.4398V15.5612C24.3513 15.5612 24.4282 15.6074 24.4821 15.6956C24.5416 15.793 24.5774 15.9503 24.5774 16.175H24.6988H24.8203C24.8203 15.9326 24.783 15.7223 24.6893 15.5689C24.5899 15.4063 24.4332 15.3184 24.2317 15.3184V15.4398ZM24.6988 16.175H24.5774C24.5774 16.6534 24.3749 17.4172 24.0334 18.3061C23.6937 19.1901 23.2223 20.1832 22.6972 21.1141C22.1717 22.0457 21.5948 22.9108 21.045 23.5412C20.77 23.8566 20.5047 24.1098 20.2589 24.2833C20.0111 24.4582 19.7952 24.5434 19.6164 24.5434V24.6649V24.7863C19.8679 24.7863 20.1335 24.669 20.3989 24.4817C20.6663 24.293 20.946 24.0243 21.2281 23.7008C21.7926 23.0535 22.3787 22.1731 22.9087 21.2334C23.4391 20.2932 23.9157 19.2894 24.2601 18.3932C24.6026 17.5016 24.8203 16.7017 24.8203 16.175H24.6988ZM14.6855 17.866L14.7747 17.7837C14.3528 17.3266 13.8914 16.9545 13.4144 16.6658L13.3515 16.7697L13.2886 16.8736C13.7459 17.1503 14.1897 17.5079 14.5963 17.9484L14.6855 17.866ZM13.3515 16.7697L13.4607 16.8228C14.6163 14.4487 15.8928 12.2147 17.4876 10.5173L17.3992 10.4342L17.3107 10.351C15.69 12.0758 14.4007 14.3367 13.2423 16.7165L13.3515 16.7697ZM17.3992 10.4342L17.3119 10.5186C17.8327 11.0566 18.119 11.7947 18.119 12.6871H18.2404H18.3619C18.3619 11.7406 18.0569 10.9391 17.4864 10.3497L17.3992 10.4342ZM18.2404 12.6871H18.119C18.119 14.9201 16.6445 16.8883 14.6374 17.7545L14.6855 17.866L14.7336 17.9775C16.818 17.0779 18.3619 15.0292 18.3619 12.6871H18.2404ZM8.28551 28.9189V28.7975C7.84937 28.7975 7.45382 28.7388 7.10027 28.6363L7.06646 28.7529L7.03265 28.8696C7.40907 28.9787 7.82743 29.0404 8.28551 29.0404V28.9189ZM7.06646 28.7529L7.1572 28.8336C8.16945 27.6955 9.04918 26.2193 9.87822 24.5794C10.7072 22.9396 11.4897 21.1276 12.3034 19.3187L12.1927 19.2688L12.0819 19.219C11.266 21.0329 10.4872 22.8365 9.66148 24.4698C8.83578 26.1031 7.96723 27.5574 6.97573 28.6722L7.06646 28.7529ZM12.1927 19.2688L12.1888 19.3902C12.885 19.4125 13.5531 19.3271 14.1411 19.2224L14.1198 19.1028L14.0985 18.9833C13.5185 19.0866 12.869 19.169 12.1965 19.1475L12.1927 19.2688ZM14.1198 19.1028L14.01 19.1547C14.3266 19.825 14.5239 20.6481 14.5239 21.6312H14.6454H14.7668C14.7668 20.615 14.5626 19.7561 14.2296 19.051L14.1198 19.1028ZM14.6454 21.6312H14.5239C14.5239 23.2404 13.9308 25.0362 12.8511 26.4279C11.7728 27.8178 10.2157 28.7975 8.28551 28.7975V28.9189V29.0404C10.3063 29.0404 11.9291 28.0125 13.043 26.5767C14.1555 25.1427 14.7668 23.2947 14.7668 21.6312H14.6454ZM5.61747 27.9466L5.70064 27.8581C5.08012 27.2749 4.77942 26.5275 4.78629 25.9176L4.66487 25.9163L4.54344 25.9149C4.53572 26.6003 4.87009 27.4108 5.53431 28.0351L5.61747 27.9466ZM4.66487 25.9163L4.78628 25.9183C4.79141 25.616 4.87165 25.3375 5.00186 25.0943L4.89481 25.037L4.78775 24.9797C4.64058 25.2546 4.54928 25.5707 4.54345 25.9142L4.66487 25.9163ZM4.89481 25.037L4.78431 25.0874C5.01133 25.5854 5.55793 25.952 6.21057 25.952V25.8305V25.7091C5.64782 25.7091 5.19072 25.3934 5.0053 24.9866L4.89481 25.037ZM6.21057 25.8305V25.952C6.45488 25.952 6.69692 25.9031 6.92308 25.8096L6.87667 25.6974L6.83025 25.5852C6.63303 25.6667 6.4225 25.7091 6.21057 25.7091V25.8305ZM6.87667 25.6974L6.76764 25.6439C6.35638 26.4825 5.94483 27.2378 5.51658 27.8772L5.61747 27.9448L5.71837 28.0124C6.15513 27.3603 6.57209 26.5942 6.98569 25.7508L6.87667 25.6974ZM9.93341 17.1856H10.0548C10.0548 17.1022 10.0792 17.0438 10.1172 16.9998C10.1569 16.9538 10.219 16.915 10.3069 16.8866C10.4854 16.829 10.7388 16.8244 11.0158 16.8574L11.0302 16.7368L11.0446 16.6163C10.7559 16.5818 10.4608 16.5817 10.2324 16.6555C10.1168 16.6928 10.0108 16.7513 9.93328 16.8412C9.85398 16.9331 9.81198 17.0492 9.81198 17.1856H9.93341ZM11.0302 16.7368L10.9233 16.6792C10.7182 17.0599 10.5205 17.4423 10.3284 17.8283L10.4371 17.8824L10.5458 17.9366C10.7369 17.5527 10.9334 17.1726 11.1371 16.7944L11.0302 16.7368ZM10.4371 17.8824L10.501 17.7792C10.1945 17.5895 10.0548 17.3754 10.0548 17.1856H9.93341H9.81198C9.81198 17.4993 10.0373 17.7777 10.3732 17.9857L10.4371 17.8824ZM12.9609 17.5924L12.883 17.6855C13.1017 17.8686 13.3021 18.0707 13.479 18.2936L13.5741 18.2181L13.6692 18.1426C13.4812 17.9058 13.2691 17.692 13.0389 17.4993L12.9609 17.5924ZM13.5741 18.2181L13.5487 18.0993C13.2398 18.1654 12.9258 18.2046 12.6119 18.2153L12.616 18.3367L12.6202 18.458C12.9487 18.4468 13.277 18.4058 13.5995 18.3368L13.5741 18.2181ZM12.616 18.3367L12.7262 18.3877C12.8418 18.1382 12.9541 17.8901 13.0707 17.6444L12.9609 17.5924L12.8512 17.5404C12.7342 17.7872 12.6202 18.0389 12.5059 18.2856L12.616 18.3367ZM43.6798 13.1796L43.7712 13.2596C44.1666 12.8079 44.4217 12.2351 44.4217 11.795H44.3003H44.1789C44.1789 12.1576 43.9595 12.6757 43.5884 13.0996L43.6798 13.1796ZM44.3003 11.795H44.4217C44.4217 11.6351 44.3751 11.4915 44.2782 11.3866C44.1802 11.2805 44.0424 11.2267 43.886 11.2267V11.3481V11.4695C43.9851 11.4695 44.0545 11.5023 44.0998 11.5514C44.1461 11.6015 44.1789 11.6813 44.1789 11.795H44.3003ZM43.886 11.3481V11.2267C43.6251 11.2267 43.3591 11.3847 43.1631 11.6335C42.9648 11.8852 42.8284 12.2403 42.8284 12.6615H42.9499H43.0713C43.0713 12.2929 43.1904 11.9912 43.3539 11.7838C43.5197 11.5733 43.7218 11.4695 43.886 11.4695V11.3481ZM42.9499 12.6615H42.8284C42.8284 12.7832 42.8444 12.9007 42.8651 13.0136L42.9845 12.9917L43.104 12.9698C43.0845 12.8639 43.0713 12.7625 43.0713 12.6615H42.9499ZM42.9845 12.9917L42.8822 12.9263C42.3954 13.6881 41.8908 14.4584 41.3773 15.2011L41.4771 15.2702L41.577 15.3392C42.0928 14.5933 42.5991 13.8203 43.0868 13.0571L42.9845 12.9917ZM41.4771 15.2702L41.5009 15.1511C41.3106 15.113 41.1165 15.094 40.9242 15.094V15.2154V15.3369C41.1006 15.3369 41.2787 15.3543 41.4533 15.3892L41.4771 15.2702ZM40.9242 15.2154V15.094C39.6316 15.094 38.2971 16.0654 38.2971 17.8131H38.4186H38.54C38.54 16.2152 39.7495 15.3369 40.9242 15.3369V15.2154ZM38.4186 17.8131H38.2971C38.2971 18.2819 38.3801 18.6965 38.5208 19.0559L38.6339 19.0116L38.747 18.9673C38.6177 18.6372 38.54 18.2528 38.54 17.8131H38.4186ZM38.6339 19.0116L38.5426 18.9315C38.0166 19.5309 37.526 20.0203 37.0916 20.3588C36.6518 20.7015 36.2902 20.8731 36.0188 20.8731V20.9945V21.116C36.377 21.116 36.7946 20.8981 37.2409 20.5504C37.6924 20.1984 38.1946 19.6964 38.7252 19.0917L38.6339 19.0116ZM36.0188 20.9945V20.8731C35.9155 20.8731 35.8514 20.8457 35.8127 20.807C35.774 20.7683 35.7424 20.7002 35.7424 20.5804H35.621H35.4995C35.4995 20.7416 35.5427 20.8805 35.641 20.9787C35.7391 21.0768 35.8739 21.116 36.0188 21.116V20.9945ZM35.621 20.5804H35.7424C35.7424 20.3079 35.8778 19.853 36.1701 19.1901L36.059 19.1411L35.9478 19.0922C35.6562 19.7536 35.4995 20.2511 35.4995 20.5804H35.621ZM36.059 19.1411L36.1696 19.1911L39.7976 11.1573L39.6869 11.1073L39.5762 11.0573L35.9483 19.0912L36.059 19.1411ZM39.6869 11.1073L39.7011 11.2279L43.6192 10.7664L43.605 10.6458L43.5908 10.5252L39.6727 10.9867L39.6869 11.1073ZM43.605 10.6458L43.7145 10.6983L44.1598 9.76976L44.0503 9.71725L43.9408 9.66475L43.4955 10.5933L43.605 10.6458ZM44.0503 9.71725L44.0463 9.59589L40.256 9.71993L40.2599 9.8413L40.2639 9.96267L44.0543 9.83862L44.0503 9.71725ZM40.2599 9.8413L40.3706 9.8913L41.0276 8.4374L40.9169 8.3874L40.8062 8.3374L40.1493 9.7913L40.2599 9.8413ZM40.9169 8.3874L40.9018 8.26691L39.4327 8.45116L39.4478 8.57165L39.4629 8.69213L40.932 8.50789L40.9169 8.3874ZM39.4478 8.57165L39.3395 8.51672L38.6716 9.83381L38.7799 9.88873L38.8882 9.94365L39.5561 8.62657L39.4478 8.57165ZM38.7799 9.88873L38.776 9.76736L33.4728 9.93884L33.4767 10.0602L33.4806 10.1816L38.7838 10.0101L38.7799 9.88873ZM33.4767 10.0602L33.3683 10.0055L32.4139 11.8972L32.5223 11.9519L32.6307 12.0066L33.5851 10.1149L33.4767 10.0602ZM32.5223 11.9519L32.5365 12.0725L38.0824 11.4194L38.0682 11.2988L38.054 11.1782L32.5081 11.8313L32.5223 11.9519ZM38.0682 11.2988L37.9598 11.2442L36.8447 13.4551L36.9532 13.5098L37.0616 13.5645L38.1766 11.3535L38.0682 11.2988ZM36.9532 13.5098L37.0027 13.3989C36.4139 13.1357 35.7068 12.987 34.8874 12.987V13.1085V13.2299C35.6775 13.2299 36.3501 13.3732 36.9036 13.6207L36.9532 13.5098ZM34.8874 13.1085V12.987C33.6532 12.987 32.5069 13.2932 31.4769 13.8099L31.5313 13.9184L31.5858 14.027C32.5851 13.5257 33.6944 13.2299 34.8874 13.2299V13.1085ZM31.5313 13.9184L31.5846 13.8093C31.1062 13.5759 30.5694 13.465 30.0239 13.465V13.5864V13.7078C30.537 13.7078 31.0367 13.8122 31.4781 14.0276L31.5313 13.9184ZM30.0239 13.5864V13.465C28.7065 13.465 27.2294 14.0956 26.0312 15.1915L26.1131 15.2811L26.1951 15.3707C27.3583 14.3068 28.7792 13.7078 30.0239 13.7078V13.5864ZM26.1131 15.2811L26.2286 15.2436C26.1038 14.8596 25.9084 14.5436 25.6392 14.3232C25.3687 14.1017 25.0311 13.9831 24.635 13.9831V14.1045V14.2259C24.9797 14.2259 25.2617 14.328 25.4853 14.5111C25.7102 14.6952 25.8834 14.9674 25.9977 15.3187L26.1131 15.2811ZM24.635 14.1045V13.9831C23.7326 13.9831 22.7894 14.4555 21.9037 15.1952L21.9815 15.2884L22.0594 15.3816C22.9255 14.6583 23.8146 14.2259 24.635 14.2259V14.1045ZM21.9815 15.2884L22.0584 15.1944C21.4968 14.7347 20.6906 14.6088 19.858 14.925L19.9011 15.0385L19.9442 15.152C20.7066 14.8625 21.4188 14.9847 21.9046 15.3824L21.9815 15.2884ZM19.9011 15.0385L20.0082 15.0957C20.4451 14.2781 20.6886 13.4067 20.6886 12.5338H20.5672H20.4458C20.4458 13.3611 20.2149 14.1935 19.794 14.9813L19.9011 15.0385ZM20.5672 12.5338H20.6886C20.6886 11.0061 19.9671 9.87611 18.6596 9.19721L18.6036 9.30498L18.5476 9.41275C19.7767 10.0509 20.4458 11.099 20.4458 12.5338H20.5672ZM18.6036 9.30498L18.6801 9.39931C19.1097 9.05108 19.5601 8.7396 20.0386 8.47346L19.9796 8.36733L19.9206 8.26121C19.4282 8.53504 18.9662 8.85473 18.5271 9.21065L18.6036 9.30498ZM19.9796 8.36733L20.0546 8.27184C19.8771 8.13245 19.7581 8.03845 19.5982 7.95075L19.5398 8.05722L19.4814 8.16368C19.6208 8.24016 19.7244 8.32129 19.9046 8.46283L19.9796 8.36733ZM19.5398 8.05722L19.4941 7.9447C18.8676 8.19889 18.2632 8.50284 17.6863 8.85471L17.7495 8.95838L17.8128 9.06205C18.3783 8.71707 18.971 8.41903 19.5854 8.16974L19.5398 8.05722ZM17.7495 8.95838L17.7865 8.84271C16.9723 8.58257 16.0067 8.45204 14.9063 8.45204V8.57347V8.6949C15.9885 8.6949 16.9281 8.82341 17.7126 9.07405L17.7495 8.95838ZM14.9063 8.57347V8.45204C12.3534 8.45204 9.86752 9.18807 8.01663 10.3828C6.16812 11.5759 4.93397 13.2409 4.93397 15.1023H5.0554H5.17683C5.17683 13.3555 6.33697 11.756 8.14834 10.5868C9.95733 9.41916 12.3969 8.6949 14.9063 8.6949V8.57347ZM5.0554 15.1023H4.93397C4.93397 15.9216 5.16634 16.4959 5.53102 16.8657C5.89513 17.2348 6.37688 17.3855 6.84747 17.3855V17.264V17.1426C6.4275 17.1426 6.01321 17.0087 5.70393 16.6951C5.39521 16.3821 5.17683 15.8756 5.17683 15.1023H5.0554ZM6.84747 17.264V17.3855C7.28546 17.3855 7.71702 17.2628 8.0736 17.0662C8.42876 16.8703 8.71958 16.5953 8.86308 16.2821L8.75269 16.2315L8.64229 16.1809C8.52666 16.4333 8.28094 16.6745 7.95632 16.8535C7.63312 17.0317 7.24164 17.1426 6.84747 17.1426V17.264ZM8.75269 16.2315L8.77724 16.1126C8.12078 15.9771 7.71894 15.4096 7.71894 14.6591H7.59751H7.47608C7.47608 15.4992 7.9356 16.1868 8.72813 16.3504L8.75269 16.2315ZM7.59751 14.6591H7.71894C7.71894 13.3052 8.54104 12.0203 9.81075 11.0686C11.079 10.1179 12.7791 9.51215 14.4994 9.51215V9.39072V9.26929C12.7249 9.26929 10.9741 9.89305 9.66508 10.8742C8.35755 11.8543 7.47608 13.2036 7.47608 14.6591H7.59751ZM14.4994 9.39072V9.51215C15.2674 9.51215 15.9258 9.65532 16.4632 9.91421L16.5159 9.80482L16.5686 9.69542C15.9928 9.41799 15.2971 9.26929 14.4994 9.26929V9.39072ZM16.5159 9.80482L16.4419 9.70857C14.3016 11.355 12.6623 13.5941 11.3132 15.9784L11.4189 16.0382L11.5246 16.098C12.8654 13.7283 14.4855 11.5199 16.5899 9.90106L16.5159 9.80482ZM11.4189 16.0382L11.4375 15.9182C11.2434 15.888 11.0492 15.8729 10.8532 15.8729V15.9944V16.1158C11.0367 16.1158 11.2184 16.1299 11.4003 16.1581L11.4189 16.0382ZM10.8532 15.9944V15.8729C10.3353 15.8729 9.87577 15.9839 9.54199 16.2149C9.2031 16.4494 9.00171 16.8028 9.00171 17.2604H9.12314H9.24458C9.24458 16.8843 9.40543 16.6047 9.68018 16.4146C9.96002 16.221 10.3655 16.1158 10.8532 16.1158V15.9944ZM9.12314 17.2604H9.00171C9.00171 17.8841 9.41032 18.4041 9.99122 18.7679L10.0557 18.665L10.1201 18.5621C9.57689 18.2218 9.24458 17.7676 9.24458 17.2604H9.12314ZM10.0557 18.665L9.94617 18.6126C9.11663 20.344 8.38497 22.0809 7.68725 23.6543L7.79825 23.7035L7.90926 23.7527C8.60943 22.1739 9.3377 20.4447 10.1652 18.7175L10.0557 18.665ZM7.79825 23.7035L7.90652 23.6485C7.63958 23.1229 7.0418 22.7904 6.36387 22.7904V22.9118V23.0332C6.96703 23.0332 7.47149 23.3282 7.68998 23.7585L7.79825 23.7035ZM6.36387 22.9118V22.7904C4.74221 22.7904 3.54703 24.2154 3.54703 25.9418H3.66846H3.78989C3.78989 24.3189 4.90506 23.0332 6.36387 23.0332V22.9118ZM3.66846 25.9418H3.54703C3.54703 27.0699 4.00415 28.1437 4.78698 28.9991L4.87656 28.9171L4.96614 28.8351C4.21968 28.0195 3.78989 27.0027 3.78989 25.9418H3.66846ZM4.87656 28.9171L4.78613 28.8361C4.07633 29.628 3.31717 30.0829 2.43742 30.1037L2.44029 30.2251L2.44316 30.3465C3.41387 30.3235 4.23145 29.8188 4.96698 28.9982L4.87656 28.9171ZM2.44029 30.2251L2.43659 30.1037C2.15984 30.1121 1.88468 30.0429 1.64511 29.9046L1.5844 30.0098L1.5237 30.115C1.8024 30.2759 2.12217 30.3563 2.44399 30.3464L2.44029 30.2251ZM1.5844 30.0098L1.59751 30.1305C2.36511 30.0472 3.02365 29.4716 3.00331 28.695L2.88192 28.6982L2.76053 28.7014C2.77669 29.3185 2.24904 29.8155 1.5713 29.8891L1.5844 30.0098ZM2.88192 28.6982L3.00331 28.695C2.98296 27.918 2.33336 27.3845 1.48336 27.402L1.48586 27.5234L1.48836 27.6448C2.23333 27.6295 2.74438 28.0847 2.76053 28.7014L2.88192 28.6982ZM1.48586 27.5234L1.48358 27.402C0.428475 27.4217 -0.13867 28.3086 -0.121027 29.0768L0.00037236 29.074L0.121772 29.0712C0.106566 28.4092 0.594224 27.6616 1.48813 27.6448L1.48586 27.5234ZM0.00037236 29.074L-0.12103 29.0767C-0.105588 29.778 0.202018 30.3185 0.701692 30.6757C1.19744 31.0301 1.87385 31.1988 2.6255 31.182L2.62278 31.0606L2.62006 30.9392C1.90448 30.9552 1.28429 30.7937 0.842935 30.4781C0.405513 30.1654 0.135532 29.6962 0.121774 29.0713L0.00037236 29.074ZM2.62278 31.0606L2.62558 31.182C3.9238 31.1521 5.03803 30.6883 6.02644 29.9119L5.95143 29.8164L5.87643 29.7209C4.92313 30.4697 3.8584 30.9107 2.61999 30.9392L2.62278 31.0606ZM5.95143 29.8164L5.88588 29.9187C6.8274 30.5225 8.00175 30.8883 9.31294 30.8883V30.7669V30.6454C8.04733 30.6454 6.91863 30.2925 6.01699 29.7142L5.95143 29.8164ZM9.31294 30.7669V30.8883C13.2786 30.8883 16.6318 27.5113 16.6318 23.0012H16.5104H16.389C16.389 27.3896 13.1324 30.6454 9.31294 30.6454V30.7669ZM16.5104 23.0012H16.6318C16.6318 21.2099 16.1697 19.788 15.476 18.6948L15.3735 18.7599L15.271 18.8249C15.9386 19.8771 16.389 21.2535 16.389 23.0012H16.5104ZM15.3735 18.7599L15.4138 18.8744C16.6954 18.4234 17.8204 17.7041 18.6964 16.8358L18.6109 16.7496L18.5254 16.6634C17.6751 17.5062 16.581 18.2062 15.3332 18.6453L15.3735 18.7599ZM18.6109 16.7496L18.6964 16.8359C19.2909 16.247 19.7982 15.9908 20.2079 15.9149C20.6154 15.8395 20.9377 15.9401 21.17 16.0877L21.2351 15.9853L21.3003 15.8828C21.0216 15.7057 20.6377 15.5883 20.1637 15.6761C19.6919 15.7635 19.1427 16.0519 18.5254 16.6633L18.6109 16.7496ZM21.2351 15.9853L21.1477 15.901C20.1328 16.9542 19.216 18.3272 18.5526 19.7213C17.89 21.1136 17.4748 22.5382 17.4748 23.6944H17.5962H17.7177C17.7177 22.5885 18.1173 21.2011 18.7719 19.8256C19.4256 18.4519 20.3282 17.1014 21.3226 16.0695L21.2351 15.9853ZM17.5962 23.6944H17.4748C17.4748 24.4075 17.6167 25.0126 17.9097 25.443C18.2066 25.8794 18.6531 26.1271 19.2314 26.1271V26.0057V25.8842C18.7329 25.8842 18.3618 25.6758 18.1104 25.3064C17.855 24.931 17.7177 24.3804 17.7177 23.6944H17.5962ZM19.2314 26.0057V26.1271C20.0775 26.1271 20.9506 25.7203 21.7767 25.0745C22.6045 24.4273 23.3964 23.5315 24.0827 22.5318C25.4522 20.5367 26.4203 18.0989 26.397 16.3521L26.2756 16.3537L26.1541 16.3554C26.1765 18.0308 25.2384 20.419 23.8824 22.3943C23.206 23.3797 22.4303 24.2552 21.6271 24.8831C20.8224 25.5123 20.0013 25.8842 19.2314 25.8842V26.0057ZM26.2756 16.3537L26.3657 16.4352C27.3878 15.3039 28.7442 14.64 29.8287 14.64V14.5186V14.3972C28.6576 14.3972 27.2401 15.1051 26.1855 16.2723L26.2756 16.3537ZM29.8287 14.5186V14.64C30.0324 14.64 30.2152 14.6644 30.3812 14.7088L30.4127 14.5916L30.4441 14.4743C30.2561 14.4239 30.052 14.3972 29.8287 14.3972V14.5186ZM30.4127 14.5916L30.3426 14.4924C27.789 16.2962 26.1925 19.3831 26.1925 21.7753H26.3139H26.4353C26.4353 19.472 27.9849 16.4551 30.4827 14.6907L30.4127 14.5916ZM26.3139 21.7753H26.1925C26.1925 22.4163 26.3495 22.9924 26.6723 23.4112C26.9982 23.8339 27.4852 24.0858 28.1169 24.0858V23.9644V23.8429C27.557 23.8429 27.1424 23.6232 26.8647 23.2629C26.5839 22.8987 26.4353 22.3802 26.4353 21.7753H26.3139ZM28.1169 23.9644V24.0858C29.2855 24.0858 30.5975 23.1839 31.6085 21.8756C32.6239 20.5614 33.3609 18.8067 33.3609 17.0469H33.2395H33.118C33.118 18.7423 32.406 20.4462 31.4163 21.7271C30.4222 23.0136 29.1729 23.8429 28.1169 23.8429V23.9644ZM33.2395 17.0469H33.3609C33.3609 15.9635 33.0526 15.1349 32.5526 14.5492L32.4602 14.628L32.3679 14.7069C32.8241 15.2412 33.118 16.0107 33.118 17.0469H33.2395ZM32.4602 14.628L32.5222 14.7325C33.2845 14.2799 34.1174 14.007 35.0078 14.007V13.8856V13.7642C34.066 13.7642 33.1907 14.0531 32.3982 14.5236L32.4602 14.628ZM35.0078 13.8856V14.007C35.5208 14.007 36.0608 14.1271 36.5448 14.3397L36.5937 14.2285L36.6425 14.1174C36.1301 13.8922 35.5569 13.7642 35.0078 13.7642V13.8856ZM36.5937 14.2285L36.4852 14.1739L34.2588 18.5885L34.3673 18.6431L34.4757 18.6978L36.7021 14.2832L36.5937 14.2285ZM34.3673 18.6431L34.2579 18.5905C33.7359 19.6745 33.525 20.4925 33.525 21.0967H33.6464H33.7678C33.7678 20.5443 33.9621 19.7644 34.4767 18.6958L34.3673 18.6431ZM33.6464 21.0967H33.525C33.525 21.5673 33.6629 21.9399 33.9269 22.1943C34.1901 22.4479 34.5621 22.5681 34.9987 22.5681V22.4466V22.3252C34.605 22.3252 34.3008 22.2173 34.0954 22.0194C33.8908 21.8223 33.7678 21.5199 33.7678 21.0967H33.6464ZM34.9987 22.4466V22.5681C35.6379 22.5681 36.3206 22.2718 37.0141 21.7846C37.7093 21.2962 38.4277 20.6072 39.1409 19.8017L39.05 19.7212L38.9591 19.6407C38.2525 20.4387 37.5483 21.1125 36.8745 21.5859C36.1988 22.0605 35.5657 22.3252 34.9987 22.3252V22.4466ZM39.05 19.7212L38.9555 19.7976C39.5957 20.5898 40.5894 20.9427 41.4114 20.9427V20.8212V20.6998C40.6494 20.6998 39.7307 20.3705 39.1444 19.6449L39.05 19.7212ZM41.4114 20.8212V20.9427C41.6696 20.9427 41.9358 20.9163 42.2025 20.8697L42.1816 20.7501L42.1607 20.6305C41.9054 20.6751 41.6533 20.6998 41.4114 20.6998V20.8212ZM42.1816 20.7501L42.0864 20.6747C41.5107 21.4011 40.5447 21.9584 39.099 22.3197L39.1285 22.4375L39.1579 22.5553C40.6321 22.1869 41.6553 21.6096 42.2767 20.8255L42.1816 20.7501ZM39.1285 22.4375L39.099 22.3197L19.7658 27.152L19.7953 27.2698L19.8247 27.3876L39.1579 22.5553L39.1285 22.4375ZM19.7953 27.2698L19.7659 27.152C18.2896 27.5198 17.0776 28.073 16.3455 28.9015C15.605 29.7395 15.3704 30.842 15.8142 32.2624L15.9301 32.2262L16.046 32.19C15.6229 30.8358 15.8528 29.8258 16.5275 29.0623C17.2107 28.2891 18.3646 27.7514 19.8246 27.3877L19.7953 27.2698ZM15.9301 32.2262L16.0072 32.32C16.6553 31.787 17.8393 31.2546 20.9603 30.3029L20.9249 30.1868L20.8895 30.0706C17.7766 31.0198 16.5444 31.5637 15.853 32.1325L15.9301 32.2262ZM20.9249 30.1868L20.9603 30.3029L38.5106 24.9543L38.4752 24.8382L38.4398 24.722L20.8895 30.0706L20.9249 30.1868ZM38.4752 24.8382L38.5106 24.9543C41.117 24.1581 42.7721 22.2902 43.4797 20.4005L43.3659 20.3579L43.2522 20.3153C42.5692 22.1397 40.9686 23.9494 38.4397 24.722L38.4752 24.8382ZM43.3659 20.3579L43.4188 20.4672C44.6407 19.877 45.7466 18.7335 45.7466 17.129H45.6252H45.5037C45.5037 18.6075 44.4855 19.6822 43.3131 20.2486L43.3659 20.3579ZM45.6252 17.129H45.7466C45.7466 16.2425 45.374 15.5391 44.9482 14.9117C44.7393 14.6039 44.5036 14.2952 44.3035 14.0091C44.0985 13.7159 43.9181 13.4294 43.7936 13.1326L43.6816 13.1796L43.5697 13.2266C43.7043 13.5474 43.8964 13.8507 44.1045 14.1482C44.3174 14.4527 44.5351 14.7355 44.7473 15.0481C45.1637 15.6616 45.5037 16.3154 45.5037 17.129H45.6252Z" fill="white" mask="url(#path-14-inside-1_0_5)"/>
</svg>
